<svg xmlns="http://www.w3.org/2000/svg" width="111" height="112" viewBox="0 0 111 112" xmlns:xlink="http://www.w3.org/1999/xlink">
  <defs>
    <filter id="a" width="200%" height="200%" x="-50%" y="-50%" filterUnits="objectBoundingBox">
      <feOffset dy="2" in="SourceAlpha" result="shadowOffsetOuter1"/>
      <feGaussianBlur stdDeviation="2" in="shadowOffsetOuter1" result="shadowBlurOuter1"/>
      <feColorMatrix values="0 0 0 0 0 0 0 0 0 0 0 0 0 0 0 0 0 0 0.5 0" in="shadowBlurOuter1" result="shadowMatrixOuter1"/>
      <feMerge>
        <feMergeNode in="shadowMatrixOuter1"/>
        <feMergeNode in="SourceGraphic"/>
      </feMerge>
    </filter>
    <path id="c" d="M85.7395833,36.4583333 L93.21875,36.4583333 C95.7212903,36.4583333 97.75,38.4870431 97.75,40.9895833 L97.75,40.9895833 C97.75,42.1913456 97.2726018,43.3438867 96.4228276,44.1936609 C95.5730534,45.0434352 94.4205122,45.5208333 93.21875,45.5208333 L85.7395833,45.5208333 L85.7395833,53 C85.7395833,55.5025403 83.7108736,57.53125 81.2083333,57.53125 C78.7057931,57.53125 76.6770833,55.5025403 76.6770833,53 L76.6770833,45.5208333 L69.1979167,45.5208333 C66.6953764,45.5208333 64.6666667,43.4921236 64.6666667,40.9895833 C64.6666667,38.4870431 66.6953764,36.4583333 69.1979167,36.4583333 L76.6770833,36.4583333 L76.6770833,28.9791667 C76.6770833,26.4766264 78.7057931,24.4479167 81.2083333,24.4479167 C83.7108736,24.4479167 85.7395833,26.4766264 85.7395833,28.9791667 L85.7395833,36.4583333 Z M5.38541667,98.9583333 L69.1666667,98.9583333 C72.0431497,98.9583333 74.375,96.6264831 74.375,93.75 L74.375,81.5104167 C74.3694303,66.5036052 65.3247714,52.977729 51.4583333,47.2395833 C60.6497231,40.9984732 64.6945136,29.491596 61.4298278,18.872042 C58.165142,8.25248806 48.3548367,1.00497377 37.2447917,1.00497377 C26.1347467,1.00497377 16.3244413,8.25248806 13.0597555,18.872042 C9.79506975,29.491596 13.8398603,40.9984732 23.03125,47.2395833 C9.16481192,52.977729 0.120153062,66.5036052 0.114583333,81.5104167 L0.114583333,93.75 C0.114483089,95.1422332 0.67178779,96.4765536 1.66209924,97.4551222 C2.65241069,98.4336909 3.9932837,98.9750401 5.38541667,98.9583333 L5.38541667,98.9583333 Z"/>
    <filter id="b" width="200%" height="200%" x="-50%" y="-50%" filterUnits="objectBoundingBox">
      <feOffset dy="2" in="SourceAlpha" result="shadowOffsetOuter1"/>
      <feGaussianBlur stdDeviation="2" in="shadowOffsetOuter1" result="shadowBlurOuter1"/>
      <feColorMatrix values="0 0 0 0 0.615686275 0 0 0 0 0.639215686 0 0 0 0 0.690196078 0 0 0 0.5 0" in="shadowBlurOuter1"/>
    </filter>
  </defs>
  <g fill="none" filter="url(#a)" transform="translate(7 2)">
    <use fill="black" filter="url(#b)" xlink:href="#c"/>
    <use fill="#FFFFFF" fill-rule="evenodd" xlink:href="#c"/>
  </g>
</svg>
