<svg xmlns="http://www.w3.org/2000/svg" width="105" height="100" viewBox="0 0 105 100">
  <g fill="#9DA3B0">
    <path d="M75.5405405 22.5675676L75.5405405 14.8648649C75.5405405 6.89189189 69.0540541.405405405 61.0810811.405405405L44.3243243.405405405C36.3513514.405405405 29.8648649 6.89189189 29.8648649 14.8648649L29.8648649 22.7027027 37.2972973 22.7027027 37.2972973 14.8648649C37.2972973 10.9459459 40.4054054 7.83783784 44.3243243 7.83783784L61.0810811 7.83783784C65 7.83783784 68.1081081 10.9459459 68.1081081 14.8648649L68.1081081 22.7027027 75.5405405 22.7027027 75.5405405 22.5675676zM104.459459 49.4594595C94.3243243 54.0540541 65 66.4864865 52.7027027 66.4864865 40.4054054 66.4864865 11.0810811 54.0540541.945945946 49.4594595L.945945946 99.5945946 104.594595 99.5945946 104.594595 49.4594595 104.459459 49.4594595z"/>
    <path d="M104.459459,44.0540541 L104.459459,28.2432432 L0.945945946,28.2432432 L0.945945946,44.0540541 C8.10810811,47.2972973 40.5405405,61.4864865 52.7027027,61.4864865 C64.8648649,61.4864865 97.2972973,47.2972973 104.459459,44.0540541 Z"/>
  </g>
</svg>
