<svg xmlns="http://www.w3.org/2000/svg" width="100" height="100" viewBox="0 0 100 100">
  <g fill="#9DA3B0">
    <path d="M95.5555556,4.44444444 L95.5555556,95.5555556 L4.44444444,95.5555556 L4.44444444,4.44444444 L95.5555556,4.44444444 L95.5555556,4.44444444 Z M100,0 L0,0 L0,100 L100,100 L100,0 L100,0 Z"/>
    <path d="M45.2222222,12.5555556 L43.4444444,23.6666667 C40.7777778,24.3333333 38.2222222,25.3333333 36,26.6666667 L26.8888889,20.1111111 L20.3333333,26.6666667 L26.7777778,35.7777778 C25.4444444,38.1111111 24.3333333,40.5555556 23.6666667,43.2222222 L12.6666667,45.1111111 L12.6666667,54.4444444 L23.6666667,56.3333333 C24.3333333,59 25.3333333,61.5555556 26.7777778,63.7777778 L20.2222222,72.8888889 L26.7777778,79.4444444 L35.8888889,73 C38.2222222,74.3333333 40.6666667,75.3333333 43.3333333,76 L45.2222222,87.1111111 L54.5555556,87.1111111 L56.5555556,76 C59.2222222,75.3333333 61.6666667,74.2222222 63.8888889,72.8888889 L73.1111111,79.4444444 L79.6666667,72.8888889 L73.1111111,63.7777778 C74.4444444,61.5555556 75.5555556,59 76.2222222,56.4444444 L87.3333333,54.4444444 L87.3333333,45.1111111 L76.2222222,43.2222222 C75.5555556,40.5555556 74.4444444,38.1111111 73.1111111,35.8888889 L79.6666667,26.6666667 L73.1111111,20.1111111 L64,26.6666667 C61.7777778,25.3333333 59.2222222,24.2222222 56.5555556,23.5555556 L54.6666667,12.4444444 L45.2222222,12.4444444 L45.2222222,12.5555556 Z M50,29.6666667 C61.2222222,29.6666667 70.3333333,38.7777778 70.3333333,50 C70.3333333,61.2222222 61.2222222,70.3333333 50,70.3333333 C38.7777778,70.3333333 29.6666667,61.2222222 29.6666667,50 C29.6666667,38.7777778 38.7777778,29.6666667 50,29.6666667 Z M50,34.6666667 C41.5555556,34.6666667 34.6666667,41.5555556 34.6666667,50 C34.6666667,58.4444444 41.5555556,65.3333333 50,65.3333333 C58.4444444,65.3333333 65.3333333,58.4444444 65.3333333,50 C65.3333333,41.5555556 58.4444444,34.6666667 50,34.6666667 Z M49.8888889,43.5555556 C53.4444444,43.5555556 56.4444444,46.4444444 56.4444444,50 C56.4444444,53.5555556 53.4444444,56.4444444 49.8888889,56.4444444 C46.3333333,56.4444444 43.4444444,53.5555556 43.4444444,50 C43.4444444,46.4444444 46.3333333,43.5555556 49.8888889,43.5555556 Z"/>
  </g>
</svg>
