<svg xmlns="http://www.w3.org/2000/svg" width="100" height="100" viewBox="0 0 100 100">
  <g fill="none" fill-rule="evenodd">
    <path fill="#9DA3B0" d="M79.2188889,82.8122222 L79.2188889,94.5533333 L94.0855556,78.9066667 C94.1677778,78.82 94.26,78.75 94.3511111,78.6777778 L83.3533333,78.6777778 C81.0733333,78.6777778 79.2188889,80.5333333 79.2188889,82.8122222 Z"/>
    <path d="M9.71333333,95.2622222 L74.4811111,95.2622222 L74.4811111,82.8122222 C74.4811111,77.92 78.4611111,73.94 83.3533333,73.94 L94.4211111,73.94 L94.4211111,30.0122222 L5.57888889,30.0122222 L5.57888889,91.1277778 C5.57888889,93.4077778 7.43333333,95.2622222 9.71333333,95.2622222 Z M63.6022222,40.8333333 C63.6022222,38.3444444 65.4177778,36.3266667 67.6577778,36.3266667 L78.0255556,36.3266667 C80.2655556,36.3266667 82.0811111,38.3444444 82.0811111,40.8333333 L82.0811111,45.5088889 C82.0811111,47.9977778 80.2655556,50.0155556 78.0255556,50.0155556 L67.6577778,50.0155556 C65.4177778,50.0155556 63.6022222,47.9977778 63.6022222,45.5088889 L63.6022222,40.8333333 Z M63.6022222,59.2588889 C63.6022222,56.77 65.4177778,54.7522222 67.6577778,54.7522222 L78.0255556,54.7522222 C80.2655556,54.7522222 82.0811111,56.77 82.0811111,59.2588889 L82.0811111,63.9344444 C82.0811111,66.4233333 80.2655556,68.4411111 78.0255556,68.4411111 L67.6577778,68.4411111 C65.4177778,68.4411111 63.6022222,66.4233333 63.6022222,63.9344444 L63.6022222,59.2588889 Z M40.8588889,40.8333333 C40.8588889,38.3444444 42.6744444,36.3266667 44.9144444,36.3266667 L55.2811111,36.3266667 C57.5211111,36.3266667 59.3366667,38.3444444 59.3366667,40.8333333 L59.3366667,45.5088889 C59.3366667,47.9977778 57.5211111,50.0155556 55.2811111,50.0155556 L44.9144444,50.0155556 C42.6744444,50.0155556 40.8588889,47.9977778 40.8588889,45.5088889 L40.8588889,40.8333333 Z M40.8588889,59.2588889 C40.8588889,56.77 42.6744444,54.7522222 44.9144444,54.7522222 L55.2811111,54.7522222 C57.5211111,54.7522222 59.3366667,56.77 59.3366667,59.2588889 L59.3366667,63.9344444 C59.3366667,66.4233333 57.5211111,68.4411111 55.2811111,68.4411111 L44.9144444,68.4411111 C42.6744444,68.4411111 40.8588889,66.4233333 40.8588889,63.9344444 L40.8588889,59.2588889 Z M40.8588889,77.6855556 C40.8588889,75.1966667 42.6744444,73.1788889 44.9144444,73.1788889 L55.2811111,73.1788889 C57.5211111,73.1788889 59.3366667,75.1966667 59.3366667,77.6855556 L59.3366667,82.3611111 C59.3366667,84.85 57.5211111,86.8677778 55.2811111,86.8677778 L44.9144444,86.8677778 C42.6744444,86.8677778 40.8588889,84.85 40.8588889,82.3611111 L40.8588889,77.6855556 Z M18.1155556,40.8333333 C18.1155556,38.3444444 19.9311111,36.3266667 22.1711111,36.3266667 L32.5388889,36.3266667 C34.7788889,36.3266667 36.5944444,38.3444444 36.5944444,40.8333333 L36.5944444,45.5088889 C36.5944444,47.9977778 34.7788889,50.0155556 32.5388889,50.0155556 L22.1711111,50.0155556 C19.9311111,50.0155556 18.1155556,47.9977778 18.1155556,45.5088889 L18.1155556,40.8333333 Z M18.1155556,59.2588889 C18.1155556,56.77 19.9311111,54.7522222 22.1711111,54.7522222 L32.5388889,54.7522222 C34.7788889,54.7522222 36.5944444,56.77 36.5944444,59.2588889 L36.5944444,63.9344444 C36.5944444,66.4233333 34.7788889,68.4411111 32.5388889,68.4411111 L22.1711111,68.4411111 C19.9311111,68.4411111 18.1155556,66.4233333 18.1155556,63.9344444 L18.1155556,59.2588889 Z M18.1155556,77.6855556 C18.1155556,75.1966667 19.9311111,73.1788889 22.1711111,73.1788889 L32.5388889,73.1788889 C34.7788889,73.1788889 36.5944444,75.1966667 36.5944444,77.6855556 L36.5944444,82.3611111 C36.5944444,84.85 34.7788889,86.8677778 32.5388889,86.8677778 L22.1711111,86.8677778 C19.9311111,86.8677778 18.1155556,84.85 18.1155556,82.3611111 L18.1155556,77.6855556 Z"/>
    <path fill="#9DA3B0" fill-rule="nonzero" d="M9.71333333,100 L78.6911111,100 C79.9566667,100 81.1655556,99.4788889 82.0344444,98.5588889 L97.52,82.1688889 C97.6022222,82.0833333 97.71,81.9722222 97.8333333,81.8477778 C98.6844444,80.9888889 99.1588889,79.8255556 99.1588889,78.6166667 L99.1588889,18.8466667 C99.1588889,13.9466667 95.1866667,9.97444444 90.2866667,9.97444444 L87.9055556,9.97444444 L87.9055556,4.97777778 C87.9055556,2.24 85.6655556,0 82.9277778,0 L82.4255556,0 C79.6877778,0 77.4477778,2.24 77.4477778,4.97777778 L77.4477778,9.97444444 L66.1211111,9.97444444 L66.1211111,4.97777778 C66.1211111,2.24 63.8811111,0 61.1433333,0 L60.6411111,0 C57.9033333,0 55.6633333,2.24 55.6633333,4.97777778 L55.6633333,9.97444444 L44.3355556,9.97444444 L44.3355556,4.97777778 C44.3355556,2.24 42.0955556,0 39.3577778,0 L38.8555556,0 C36.1177778,0 33.8777778,2.24 33.8777778,4.97777778 L33.8777778,9.97444444 L22.5511111,9.97444444 L22.5511111,4.97777778 C22.5511111,2.24 20.3111111,0 17.5733333,0 L17.0711111,0 C14.3333333,0 12.0933333,2.24 12.0933333,4.97777778 L12.0933333,9.97444444 L9.71222222,9.97444444 C4.81222222,9.97444444 0.84,13.9466667 0.84,18.8466667 L0.84,91.1288889 C0.841111111,96.0277778 4.81333333,100 9.71333333,100 Z M94.0855556,78.9066667 L79.2188889,94.5533333 L79.2188889,82.8122222 C79.2188889,80.5322222 81.0733333,78.6777778 83.3533333,78.6777778 L94.3511111,78.6777778 C94.2588889,78.7488889 94.1677778,78.82 94.0855556,78.9066667 Z M5.57888889,30.0122222 L94.4211111,30.0122222 L94.4211111,73.9388889 L83.3533333,73.9388889 C78.4611111,73.9388889 74.4811111,77.9188889 74.4811111,82.8111111 L74.4811111,95.26 L9.71333333,95.26 C7.43333333,95.26 5.58,93.4055556 5.58,91.1266667 L5.58,30.0122222 L5.57888889,30.0122222 Z"/>
    <path fill="#9DA3B0" fill-rule="nonzero" d="M22.1711111 50.0144444L32.5388889 50.0144444C34.7788889 50.0144444 36.5944444 47.9966667 36.5944444 45.5077778L36.5944444 40.8333333C36.5944444 38.3444444 34.7788889 36.3266667 32.5388889 36.3266667L22.1711111 36.3266667C19.9311111 36.3266667 18.1155556 38.3444444 18.1155556 40.8333333L18.1155556 45.5088889C18.1155556 47.9966667 19.9311111 50.0144444 22.1711111 50.0144444zM44.9155556 50.0144444L55.2822222 50.0144444C57.5222222 50.0144444 59.3377778 47.9966667 59.3377778 45.5077778L59.3377778 40.8333333C59.3377778 38.3444444 57.5222222 36.3266667 55.2822222 36.3266667L44.9155556 36.3266667C42.6755556 36.3266667 40.86 38.3444444 40.86 40.8333333L40.86 45.5088889C40.8588889 47.9966667 42.6744444 50.0144444 44.9155556 50.0144444zM67.6588889 50.0144444L78.0266667 50.0144444C80.2666667 50.0144444 82.0822222 47.9966667 82.0822222 45.5077778L82.0822222 40.8333333C82.0822222 38.3444444 80.2666667 36.3266667 78.0266667 36.3266667L67.6588889 36.3266667C65.4188889 36.3266667 63.6033333 38.3444444 63.6033333 40.8333333L63.6033333 45.5088889C63.6022222 47.9966667 65.4188889 50.0144444 67.6588889 50.0144444zM22.1711111 68.4411111L32.5388889 68.4411111C34.7788889 68.4411111 36.5944444 66.4233333 36.5944444 63.9344444L36.5944444 59.2588889C36.5944444 56.77 34.7788889 54.7522222 32.5388889 54.7522222L22.1711111 54.7522222C19.9311111 54.7522222 18.1155556 56.77 18.1155556 59.2588889L18.1155556 63.9344444C18.1155556 66.4233333 19.9311111 68.4411111 22.1711111 68.4411111zM44.9155556 68.4411111L55.2822222 68.4411111C57.5222222 68.4411111 59.3377778 66.4233333 59.3377778 63.9344444L59.3377778 59.2588889C59.3377778 56.77 57.5222222 54.7522222 55.2822222 54.7522222L44.9155556 54.7522222C42.6755556 54.7522222 40.86 56.77 40.86 59.2588889L40.86 63.9344444C40.8588889 66.4233333 42.6744444 68.4411111 44.9155556 68.4411111zM67.6588889 68.4411111L78.0266667 68.4411111C80.2666667 68.4411111 82.0822222 66.4233333 82.0822222 63.9344444L82.0822222 59.2588889C82.0822222 56.77 80.2666667 54.7522222 78.0266667 54.7522222L67.6588889 54.7522222C65.4188889 54.7522222 63.6033333 56.77 63.6033333 59.2588889L63.6033333 63.9344444C63.6022222 66.4233333 65.4188889 68.4411111 67.6588889 68.4411111zM22.1711111 86.8677778L32.5388889 86.8677778C34.7788889 86.8677778 36.5944444 84.85 36.5944444 82.3611111L36.5944444 77.6855556C36.5944444 75.1966667 34.7788889 73.1788889 32.5388889 73.1788889L22.1711111 73.1788889C19.9311111 73.1788889 18.1155556 75.1966667 18.1155556 77.6855556L18.1155556 82.3611111C18.1155556 84.85 19.9311111 86.8677778 22.1711111 86.8677778zM44.9155556 86.8677778L55.2822222 86.8677778C57.5222222 86.8677778 59.3377778 84.85 59.3377778 82.3611111L59.3377778 77.6855556C59.3377778 75.1966667 57.5222222 73.1788889 55.2822222 73.1788889L44.9155556 73.1788889C42.6755556 73.1788889 40.86 75.1966667 40.86 77.6855556L40.86 82.3611111C40.8588889 84.85 42.6744444 86.8677778 44.9155556 86.8677778z"/>
  </g>
</svg>
