<svg xmlns="http://www.w3.org/2000/svg" width="80" height="100" viewBox="0 0 80 100">
  <path fill="#9DA3B0" fill-rule="evenodd" d="M31.2499958,-6.24999904e-08 C28.9416625,-6.24999904e-08 27.0833292,1.85833333 27.0833292,4.16666667 C27.0833292,6.475 28.9416625,8.33333333 31.2499958,8.33333333 L47.9166625,8.33333333 C50.2249958,8.33333333 52.0833292,6.475 52.0833292,4.16666667 C52.0833292,1.85833333 50.2249958,-6.249999e-08 47.9166625,-6.249999e-08 L31.2499958,-6.249999e-08 L31.2499958,-6.24999904e-08 Z M8.33332958,4.16666667 C3.75270479,4.16666667 -3.7499999e-06,7.919375 -3.7499999e-06,12.5000002 L-3.7499999e-06,91.6666667 C-3.7499999e-06,96.2472917 3.75270479,100 8.33332958,100 L70.8333292,100 C75.4139542,100 79.1666625,96.2472917 79.1666625,91.6666667 L79.1666625,12.5000002 C79.1666625,7.919375 75.4139542,4.16666667 70.8333292,4.16666667 L58.1136,4.16666667 C57.0693138,4.16788947 56.1872755,4.94206792 56.0506208,5.977375 C55.2155375,9.69385417 51.8744125,12.5000002 47.9166625,12.5000002 L31.2499958,12.5000002 C27.2949958,12.5000002 23.9540167,9.69 23.1160375,5.977375 C22.9793828,4.94206792 22.0973446,4.16788947 21.0530583,4.16666667 L8.33332958,4.16666667 Z M18.7499958,29.1666667 L60.4166625,29.1666667 C61.5672557,29.1666667 62.4999958,30.0994068 62.4999958,31.25 C62.4999958,32.4005932 61.5672557,33.3333333 60.4166625,33.3333333 L18.7499958,33.3333333 C17.5994026,33.3333333 16.6666625,32.4005932 16.6666625,31.25 C16.6666625,30.0994068 17.5994026,29.1666667 18.7499958,29.1666667 L18.7499958,29.1666667 Z M18.7499958,41.6666667 L60.4166625,41.6666667 C61.5672557,41.6666667 62.4999958,42.5994068 62.4999958,43.75 C62.4999958,44.9005932 61.5672557,45.8333333 60.4166625,45.8333333 L18.7499958,45.8333333 C17.5994026,45.8333333 16.6666625,44.9005932 16.6666625,43.75 C16.6666625,42.5994068 17.5994026,41.6666667 18.7499958,41.6666667 L18.7499958,41.6666667 Z M18.7499958,54.1666667 L60.4166625,54.1666667 C61.5672557,54.1666667 62.4999958,55.0994068 62.4999958,56.25 C62.4999958,57.4005932 61.5672557,58.3333333 60.4166625,58.3333333 L18.7499958,58.3333333 C17.5994026,58.3333333 16.6666625,57.4005932 16.6666625,56.25 C16.6666625,55.0994068 17.5994026,54.1666667 18.7499958,54.1666667 L18.7499958,54.1666667 Z M18.7499958,66.6666667 L60.4166625,66.6666667 C61.5672557,66.6666667 62.4999958,67.5994068 62.4999958,68.75 C62.4999958,69.9005932 61.5672557,70.8333333 60.4166625,70.8333333 L18.7499958,70.8333333 C17.5994026,70.8333333 16.6666625,69.9005932 16.6666625,68.75 C16.6666625,67.5994068 17.5994026,66.6666667 18.7499958,66.6666667 L18.7499958,66.6666667 Z M18.7499958,79.1666667 L60.4166625,79.1666667 C61.5672557,79.1666667 62.4999958,80.0994068 62.4999958,81.25 C62.4999958,82.4005932 61.5672557,83.3333333 60.4166625,83.3333333 L18.7499958,83.3333333 C17.5994026,83.3333333 16.6666625,82.4005932 16.6666625,81.25 C16.6666625,80.0994068 17.5994026,79.1666667 18.7499958,79.1666667 L18.7499958,79.1666667 Z"/>
</svg>
