<svg xmlns="http://www.w3.org/2000/svg" width="101" height="100" viewBox="0 0 101 100">
  <path fill="#9DA3B0" d="M50.4444444,0 C22.8888889,0 0.444444444,22.4444444 0.444444444,50 C0.444444444,77.5555556 22.8888889,100 50.4444444,100 C78,100 100.444444,77.5555556 100.444444,50 C100.444444,22.4444444 78,0 50.4444444,0 Z M57.4444444,7.66666667 C56.7777778,9.66666667 53.3333333,8.33333333 51.8888889,8.33333333 C53,7.88888889 54.6666667,7.33333333 55.6666667,6.55555556 C55.7777778,6.44444444 55.7777778,6.44444444 55.8888889,6.33333333 C56.5555556,6.44444444 57.1111111,6.55555556 57.7777778,6.66666667 C57.2222222,6.88888889 56.6666667,7.11111111 56.1111111,7.44444444 C56.5555556,7.55555556 57,7.55555556 57.4444444,7.66666667 Z M40,8.55555556 C40.7777778,9.33333333 41.5555556,8.11111111 42.3333333,7.77777778 C44,6.88888889 46.3333333,6.88888889 48.2222222,6.44444444 C47.8888889,7.33333333 45.2222222,7 44.2222222,7.33333333 C43,7.77777778 43.5555556,8.11111111 42.7777778,9.44444444 C43.1111111,9.44444444 43.5555556,9.66666667 43.8888889,9.55555556 L43.8888889,9.77777778 C43.1111111,9.66666667 42.3333333,9.33333333 42.1111111,10.3333333 C41.1111111,8.77777778 40.3333333,8.88888889 39.2222222,10.3333333 C40.3333333,11 41.4444444,11.6666667 40.5555556,12.7777778 C39.4444444,14 38.8888889,12.4444444 39.8888889,11.7777778 C38.8888889,11.3333333 38.1111111,10.5555556 37.3333333,11.5555556 C37.6666667,11.5555556 38,11.6666667 38.3333333,11.6666667 C38.1111111,11.8888889 38,12.7777778 37.7777778,12.8888889 C37.3333333,13.1111111 35.7777778,12.5555556 35.3333333,12.5555556 C34.1111111,12.4444444 33,12.4444444 31.7777778,12.5555556 C32,14 30.3333333,12.6666667 29.7777778,12.2222222 C30.8888889,11.1111111 32.1111111,11.5555556 33.4444444,11.6666667 C34.4444444,11.7777778 36,11.7777778 36.1111111,10.4444444 C35,10.2222222 34.4444444,10.2222222 33.8888889,9.44444444 C33.8888889,9.33333333 33.7777778,9.22222222 33.7777778,9.22222222 C35.7777778,8.44444444 37.8888889,7.77777778 40,7.22222222 C39.6666667,7.77777778 39.5555556,8.22222222 40,8.55555556 Z M6.44444444,50 C6.44444444,39.5555556 10.1111111,30 16.2222222,22.4444444 C17,23 17.7777778,23.6666667 18.1111111,23.8888889 C18.8888889,24.5555556 19.2222222,25.3333333 19.6666667,26.1111111 C19.6666667,26.1111111 20.1111111,26.7777778 20.2222222,27.1111111 C20.7777778,27.6666667 21.1111111,28.2222222 21.2222222,28.8888889 C21.3333333,29.6666667 21,30.4444444 21,31.3333333 C20.7777778,34 21.1111111,36.4444444 23.2222222,38.3333333 C23.7777778,38.8888889 24.5555556,39.1111111 25.1111111,39.6666667 C25.6666667,40.2222222 25.6666667,40.6666667 26,41.2222222 C26.8888889,42.7777778 28.2222222,44.3333333 29.3333333,45.7777778 C30.3333333,47.1111111 30.6666667,46.7777778 29.7777778,45.4444444 C29.1111111,44.5555556 28.3333333,43.6666667 27.7777778,42.6666667 C27.7777778,42.5555556 27.2222222,41.2222222 27.3333333,41.3333333 C28.7777778,41.6666667 29.1111111,42.6666667 30.1111111,43.8888889 C31,45.1111111 31.8888889,45.7777778 32.4444444,47.1111111 C33.1111111,48.7777778 34.1111111,49.5555556 35.6666667,50.3333333 C36.4444444,50.6666667 37.7777778,51.6666667 38.6666667,51.7777778 C39.6666667,51.8888889 40.2222222,51.2222222 41.1111111,51.6666667 C41.7777778,52 42.2222222,52.8888889 43,53.2222222 C43.7777778,53.4444444 44.2222222,53.1111111 45,53.6666667 C45.8888889,54.2222222 46.1111111,55.2222222 46.8888889,55.7777778 C47.4444444,56.2222222 48.2222222,56.7777778 49,56.8888889 C49.5555556,57 50.1111111,56.5555556 50.5555556,56.7777778 C51.4444444,57.1111111 51.6666667,58.2222222 51.4444444,59.1111111 C51.1111111,60.1111111 50.2222222,60.7777778 49.7777778,61.7777778 C49.4444444,62.6666667 49.6666667,63.4444444 49.5555556,64.3333333 C49.4444444,65.2222222 48.6666667,64.3333333 49.4444444,65.8888889 C49.7777778,66.5555556 50.2222222,67.2222222 50.6666667,67.8888889 C51.5555556,69.2222222 52.1111111,70.3333333 53.2222222,71.3333333 C54,72.1111111 55.7777778,72.8888889 56.1111111,74 C56.4444444,75 56.2222222,77.1111111 56,78.1111111 C55.6666667,80.2222222 55.6666667,82.7777778 55.1111111,84.7777778 C54.5555556,86.6666667 53.8888889,87.3333333 54.3333333,89.3333333 C54.5555556,90.2222222 54.6666667,89.7777778 54.3333333,91 C54.2222222,91.3333333 54.3333333,91.4444444 54.2222222,91.7777778 C54,92.4444444 53.3333333,92.8888889 53,93.6666667 C53.8888889,93.6666667 53.8888889,94 53.7777778,94.3333333 C52.5555556,94.4444444 51.4444444,94.5555556 50.2222222,94.5555556 C26.2222222,94 6.44444444,74.2222222 6.44444444,50 Z M58.7777778,93.2222222 C58.5555556,93 58.3333333,92.6666667 58.3333333,92.5555556 C58.3333333,92.3333333 59.2222222,91.1111111 59.3333333,90.8888889 C59.5555556,90.4444444 59.6666667,89.4444444 60,89.1111111 C60.4444444,88.5555556 61.5555556,88.7777778 61.3333333,87.5555556 C63.6666667,87.5555556 64.6666667,87.2222222 65,84.7777778 C64.5555556,84.5555556 64.6666667,84.6666667 64.5555556,84.3333333 C64.6666667,84.7777778 66.3333333,84.1111111 66.4444444,84.4444444 C66.5555556,84.6666667 68.6666667,81.7777778 68.8888889,81.5555556 C69.4444444,80.8888889 70,80.4444444 70.3333333,79.6666667 C70.4444444,79.3333333 70.6666667,78.4444444 71,78 C71,78.1111111 71,78.1111111 70.8888889,78.2222222 C71.6666667,77 72.5555556,77.2222222 73.6666667,76.6666667 C74.7777778,76.2222222 74,76.3333333 74.7777778,75.5555556 C75.7777778,74.6666667 75.8888889,75.2222222 76.2222222,73.6666667 C76.4444444,72.5555556 76.1111111,71.5555556 76.5555556,70.6666667 C77,69.4444444 78,69 78.7777778,68 C79.3333333,67.2222222 79.8888889,65.8888889 79.1111111,65.1111111 C78.5555556,64.4444444 76.6666667,63.8888889 75.8888889,63.6666667 C74.8888889,63.4444444 73.7777778,63.4444444 72.8888889,63 C71.7777778,62.5555556 71,61.4444444 70.4444444,63.2222222 C70.2222222,63.1111111 69.5555556,62.6666667 69.5555556,62.4444444 C69.5555556,62.8888889 70.5555556,62.1111111 70.7777778,61.8888889 C70.3333333,61.8888889 68.7777778,62.2222222 68.5555556,62.1111111 C68.6666667,61.6666667 69.4444444,60.6666667 69.4444444,60.5555556 C69.5555556,59.4444444 68,58.2222222 67.1111111,58 C66,57.6666667 65.3333333,57.7777778 64.3333333,57.1111111 C63.1111111,56.2222222 62,55.2222222 60.4444444,55.1111111 C60.1111111,55.1111111 59.7777778,55.2222222 59.4444444,55.2222222 C58.6666667,55.1111111 58.3333333,54.5555556 57.6666667,54.4444444 C56.7777778,54.2222222 56.4444444,55 56,55 C55.2222222,55 55.1111111,54.2222222 54,54.8888889 C52.3333333,55.8888889 53.2222222,56.4444444 51.4444444,56 C50.4444444,55.7777778 49.3333333,56.3333333 48.4444444,55.6666667 C47.5555556,55.1111111 47.4444444,53.4444444 48.2222222,52.7777778 C47.7777778,53.1111111 47.7777778,52 47.5555556,51.7777778 C47.1111111,51.4444444 46.3333333,51.7777778 45.7777778,51.6666667 C45,51.4444444 44.5555556,51.4444444 44.7777778,50.6666667 C45,49.8888889 47.1111111,47.7777778 44.8888889,47.7777778 C43.6666667,47.7777778 43.3333333,49.5555556 42.1111111,49.7777778 C40.7777778,50 39.5555556,49.5555556 38.7777778,48.3333333 C37.3333333,45.7777778 39.6666667,42.6666667 42.1111111,42.4444444 C44,42.2222222 46.7777778,40.8888889 48.2222222,43 C48.6666667,43.5555556 49.6666667,46 50.1111111,44.4444444 C50.2222222,44 49.6666667,42 49.5555556,41.1111111 C49.8888889,40.5555556 50.5555556,40.1111111 51,39.6666667 C50.8888889,39.6666667 50.8888889,39.7777778 50.7777778,39.8888889 C51.2222222,39.4444444 52.5555556,38.7777778 52.7777778,38.1111111 C52.8888889,37.7777778 52.3333333,37.2222222 52.6666667,36.7777778 C52.8888889,36.3333333 53.4444444,36.5555556 53.6666667,36.3333333 C54,36 54,35.3333333 54.3333333,34.8888889 C54.6666667,34.4444444 55.3333333,34.4444444 55.6666667,34.1111111 C56.4444444,33.4444444 56.6666667,32.5555556 57.5555556,32.2222222 C58.4444444,31.6666667 59.3333333,30.6666667 60.4444444,31.1111111 C60,31.5555556 59,31.8888889 58.7777778,32.2222222 C58.5555556,32.5555556 60.2222222,32.3333333 60.4444444,32.2222222 C61.3333333,31.8888889 62.1111111,31.1111111 63,30.6666667 C64.3333333,29.7777778 66,29.6666667 67.6666667,30 C68.2222222,30.1111111 66.7777778,28 66.5555556,27.8888889 C66,27.2222222 65.8888889,26.6666667 64.8888889,27.4444444 C64.6666667,27.6666667 64.3333333,28.5555556 64.1111111,28.8888889 C63.5555556,30 63.6666667,29.7777778 62.3333333,30.4444444 C62.4444444,30.4444444 62.4444444,30.3333333 62.5555556,30.3333333 C61.6666667,30.5555556 60.6666667,30.8888889 60.3333333,29.7777778 C60.2222222,29.3333333 60.7777778,28.7777778 60.4444444,28.4444444 C59.7777778,27.5555556 57.5555556,29.4444444 56.7777778,29.6666667 C57.2222222,26.4444444 61,28.1111111 63,27.5555556 C63.5555556,27.3333333 65.6666667,26.5555556 65.7777778,26.1111111 C66,25.3333333 64.1111111,24.1111111 63.7777778,23.7777778 C62.8888889,23 62.4444444,22.5555556 61.8888889,21.4444444 C61.3333333,20.2222222 61,18.8888889 59.6666667,19.8888889 C59.2222222,20.2222222 59.5555556,21 58.6666667,21.1111111 C58.1111111,21.2222222 57.5555556,20.5555556 57.2222222,20.2222222 C56.7777778,19.7777778 56.2222222,18.5555556 55.4444444,18.4444444 C54.6666667,18.3333333 52.6666667,17.3333333 51.7777778,18 C51,18.5555556 51.8888889,20.5555556 52.1111111,21.2222222 C52.5555556,22.7777778 52.8888889,22.7777778 51.5555556,23.7777778 C50.8888889,24.2222222 50.5555556,23.7777778 50.7777778,25 C50.8888889,25.6666667 51.6666667,25.7777778 51.1111111,26.3333333 C50.7777778,26.6666667 50,26.6666667 49.6666667,26.4444444 C48.5555556,25.8888889 49.5555556,25.2222222 49,24.4444444 C48.5555556,23.8888889 46.3333333,23.4444444 45.6666667,23.1111111 C44,22.3333333 39.5555556,21.5555556 41,19 C41.3333333,18.3333333 42.7777778,17.2222222 43.3333333,16.8888889 C44,16.4444444 44.7777778,16.3333333 45.3333333,15.7777778 C45.6666667,15.4444444 45.6666667,14.5555556 45.8888889,14.3333333 C46.2222222,14 47.3333333,14.1111111 48,14.2222222 C50.5555556,13.6666667 48.2222222,10 51.5555556,10.6666667 C52.4444444,10.8888889 53.4444444,11.7777778 54.2222222,12.3333333 C55.1111111,12.8888889 55.3333333,12.8888889 55.1111111,13.7777778 C55,14 54.1111111,14.8888889 53.8888889,15.1111111 C53.4444444,15.4444444 52.6666667,15.6666667 52.2222222,15.8888889 C54,15.8888889 54.7777778,15.7777778 56.2222222,16.7777778 C57.4444444,17.5555556 58.2222222,18.1111111 59.7777778,18.1111111 C59.6666667,17.3333333 58.3333333,17.6666667 58.4444444,16.8888889 C58.4444444,16.2222222 59.2222222,17.1111111 59.3333333,17.1111111 C59.7777778,17.1111111 60.8888889,17.6666667 60.6666667,16.4444444 C60.4444444,15.4444444 58.2222222,15.8888889 58.8888889,14.2222222 C59.8888889,14.1111111 59.6666667,15.2222222 60.3333333,15.4444444 C61,15.6666667 62,14.7777778 62.1111111,14.2222222 C61.1111111,13.6666667 58,12.8888889 58.3333333,11.4444444 C60.3333333,12.7777778 62.4444444,14.1111111 64.4444444,15.3333333 C62.7777778,16.7777778 65.6666667,16 65.7777778,16 C66.2222222,16.1111111 67.5555556,17.2222222 66.6666667,17.4444444 C65.7777778,17.6666667 65.3333333,16.4444444 64.5555556,17.3333333 C65.2222222,17.5555556 67.7777778,17.6666667 67.1111111,19 C66.8888889,19.5555556 65.2222222,19.4444444 64.7777778,20.5555556 C65.1111111,20.4444444 65.4444444,20.5555556 65.8888889,20.5555556 C65.1111111,21.7777778 66.2222222,22.5555556 66.8888889,23.5555556 C67.5555556,24.6666667 68.5555556,26.3333333 70,26.6666667 C73,27.4444444 72.6666667,22.5555556 74.8888889,21.7777778 C75.5555556,21.5555556 76.2222222,21.6666667 76.8888889,21.5555556 C77.5555556,21.3333333 78,20.8888889 78.5555556,20.4444444 C79.7777778,19.5555556 80.8888889,19.4444444 82.2222222,19.4444444 C86.6666667,23.8888889 90.1111111,29.3333333 92.3333333,35.4444444 C92.1111111,35.5555556 91.8888889,35.6666667 91.7777778,35.8888889 C91.5555556,36.1111111 91.5555556,36.3333333 91.4444444,36.6666667 L91.1111111,37 C90.8888889,37.4444444 91.1111111,38 91.1111111,38.4444444 C91.1111111,39 90.8888889,39.4444444 91.2222222,39.8888889 C91.4444444,40.3333333 91.8888889,40.7777778 92.3333333,41.1111111 C92.6666667,41.4444444 93.1111111,41.7777778 93.5555556,41.7777778 C93.6666667,41.7777778 94,41.7777778 94.2222222,41.6666667 C94.3333333,42.3333333 94.4444444,43 94.5555556,43.6666667 C94.1111111,44.1111111 93.5555556,44.6666667 93.3333333,45.1111111 C93,45.7777778 93,46.2222222 92.3333333,46.7777778 C91.7777778,47.3333333 91.1111111,47.4444444 90.5555556,48.1111111 C90.1111111,48.7777778 90.1111111,49.2222222 89.7777778,49.8888889 C89.5555556,50.2222222 89.1111111,50.3333333 89,50.7777778 C88.5555556,51.6666667 89.1111111,53.1111111 89,54.1111111 C89,55.3333333 88.5555556,56.3333333 89.2222222,57.4444444 C89.8888889,58.4444444 90.8888889,59.4444444 91.7777778,60.1111111 C92.3333333,60.6666667 93,61.1111111 93.6666667,61.3333333 C88.7777778,77.3333333 75.4444444,90 58.7777778,93.2222222 Z"/>
</svg>
