<svg xmlns="http://www.w3.org/2000/svg" width="133" height="100" viewBox="0 0 133 100">
  <g fill="none" fill-rule="evenodd" transform="translate(5)">
    <path fill="#9DA3B0" fill-rule="nonzero" d="M38,11.9932432 C38,5.69459459 41.777,0.590540541 46.438,0.590540541 L119.563,0.590540541 C124.224,0.590540541 128.001,5.69459459 128.001,11.9932432 C128.001,18.2918919 124.224,23.3959459 119.563,23.3959459 L46.438,23.3959459 C41.777,23.3945946 38,18.2918919 38,11.9932432 Z M119.562,38.5972973 L46.438,38.5972973 C41.777,38.5972973 38,43.7013514 38,50 C38,56.2986486 41.777,61.4027027 46.438,61.4027027 L119.563,61.4027027 C124.223,61.4027027 128,56.2986486 128,50 C128,43.7013514 124.223,38.5972973 119.562,38.5972973 Z M119.562,76.6054054 L46.438,76.6054054 C41.777,76.6054054 38,81.7081081 38,88.0067568 C38,94.3054054 41.777,99.4094595 46.438,99.4094595 L119.563,99.4094595 C124.224,99.4094595 128.001,94.3054054 128.001,88.0067568 C128.001,81.7081081 124.223,76.6054054 119.562,76.6054054 Z"/>
    <polygon fill="#15A5FB" points="13 32.239 27.857 67.375 -1.857 67.375" transform="matrix(0 1 1 0 -36.807 36.807)"/>
  </g>
</svg>
