<svg xmlns="http://www.w3.org/2000/svg" width="125" height="98" viewBox="0 0 125 98">
  <path fill="#9DA3B0" d="M62.4158172,0.56628125 C61.7601453,0.58034375 61.1484109,0.797578125 60.5603484,1.20104688 L1.18534844,48.0760938 C-0.180729375,49.173125 -0.374541875,51.1976563 0.648239063,52.519375 C1.65630156,53.8221875 3.80053594,54.0307813 5.09159844,53.0076563 L62.5134734,7.6951875 L119.935348,53.0076563 C121.226411,54.0307813 123.311677,53.8142188 124.32988,52.519375 C125.340442,51.2342188 125.231786,49.099375 123.841598,48.0760938 L64.4665984,1.20104688 C63.7710984,0.742875 63.0714891,0.552609375 62.4158172,0.56628125 Z M62.5134734,13.0662813 L20.3259734,45.87875 L20.3259734,97.44125 L50.0134734,97.44125 L50.0134734,66.19125 L75.0134734,66.19125 L75.0134734,97.44125 L104.700973,97.44125 L104.700973,45.87875 L62.5134734,13.0662812 L62.5134734,13.0662813 Z" transform="translate(0 -.003)"/>
</svg>
