<svg xmlns="http://www.w3.org/2000/svg" width="118" height="100" viewBox="0 0 118 100">
  <g fill="#9DA3B0">
    <path d="M111.037805,0.752439024 L6.03536585,0.752439024 C2.71585366,0.752439024 0,3.46829268 0,6.78780488 L0,93.2109756 C0,96.5317073 2.71585366,99.2463415 6.03536585,99.2463415 L111.037805,99.2463415 C114.357317,99.2463415 117.073171,96.5304878 117.073171,93.2109756 L117.073171,6.78780488 C117.073171,3.46829268 114.356098,0.752439024 111.037805,0.752439024 Z M105.364634,87.7243902 L11.7073171,87.7243902 L11.7073171,12.2756098 L105.365854,12.2756098 L105.365854,87.7243902 L105.364634,87.7243902 Z"/>
    <rect width="2.722" height="6.145" x="91.471" y="17.938"/>
    <path d="M94.7926829,21.4609756 L94.7926829,24.6902439 L90.8719512,24.6902439 L90.8719512,21.4609756 L69.0987805,21.4609756 L69.0987805,54.554878 L96.7963415,54.554878 L96.7963415,21.4609756 L94.7926829,21.4609756 Z M90.4963415,49.304878 L75.3987805,49.304878 L75.3987805,47.1256098 L90.4963415,47.1256098 L90.4963415,49.304878 Z M90.4963415,42.595122 L75.3987805,42.595122 L75.3987805,40.4158537 L90.4963415,40.4158537 L90.4963415,42.595122 Z M90.4963415,35.8878049 L75.3987805,35.8878049 L75.3987805,33.7060976 L90.4963415,33.7060976 L90.4963415,35.8878049 Z M90.4963415,29.1780488 L75.3987805,29.1780488 L75.3987805,26.9987805 L90.4963415,26.9987805 L90.4963415,29.1780488 Z"/>
    <rect width="2.722" height="6.143" x="57.176" y="45.065"/>
    <path d="M60.4963415,48.9682927 L60.4963415,51.8170732 L56.5756098,51.8170732 L56.5756098,48.9682927 L38.0573171,48.9682927 L38.0573171,82.0621951 L65.7536585,82.0621951 L65.7536585,48.9682927 L60.4963415,48.9682927 Z M59.454878,76.8146341 L44.3573171,76.8146341 L44.3573171,74.6329268 L59.454878,74.6329268 L59.454878,76.8146341 Z M59.454878,70.104878 L44.3573171,70.104878 L44.3573171,67.9256098 L59.454878,67.9256098 L59.454878,70.104878 Z M59.454878,63.395122 L44.3573171,63.395122 L44.3573171,61.2158537 L59.454878,61.2158537 L59.454878,63.395122 Z M59.454878,56.6853659 L44.3573171,56.6853659 L44.3573171,54.5060976 L59.454878,54.5060976 L59.454878,56.6853659 Z"/>
    <rect width="2.722" height="6.145" x="30.516" y="14.56"/>
    <path d="M33.8390244,17.9378049 L33.8390244,21.3158537 L29.9182927,21.3158537 L29.9182927,17.9378049 L20.2768293,17.9378049 L20.2768293,47.4390244 L44.9682927,47.4390244 L44.9682927,17.9378049 L33.8390244,17.9378049 Z M39.3536585,42.7609756 L25.8926829,42.7609756 L25.8926829,40.8170732 L39.3536585,40.8170732 L39.3536585,42.7609756 Z M39.3536585,36.7804878 L25.8926829,36.7804878 L25.8926829,34.8365854 L39.3536585,34.8365854 L39.3536585,36.7804878 Z M39.3536585,30.797561 L25.8926829,30.797561 L25.8926829,28.8536585 L39.3536585,28.8536585 L39.3536585,30.797561 Z M39.3536585,24.8170732 L25.8926829,24.8170732 L25.8926829,22.8731707 L39.3536585,22.8731707 L39.3536585,24.8170732 Z"/>
  </g>
</svg>
