<svg xmlns="http://www.w3.org/2000/svg" width="100" height="100" viewBox="0 0 100 100">
  <path fill="#FFFFFF" fill-rule="evenodd" d="M0,19.0004043 C0,8.50677077 8.50436343,0 19.0004043,0 L80.9995957,0 C91.4932292,0 100,8.50436343 100,19.0004043 L100,80.9995957 C100,91.4932292 91.4956366,100 80.9995957,100 L19.0004043,100 C8.50677077,100 0,91.4956366 0,80.9995957 L0,19.0004043 Z M26.8656716,19.4029851 C22.8855721,19.4029851 19.4029851,22.8855721 19.4029851,26.8656716 C19.4029851,30.3482587 22.8855721,33.8308458 26.8656716,33.8308458 C30.3482587,33.8308458 33.8308458,30.3482587 33.8308458,26.8656716 C33.8308458,22.8855721 30.3482587,19.4029851 26.8656716,19.4029851 Z M80.0995025,52.238806 C79.1044776,44.7761194 75.6218905,39.800995 65.1741294,39.800995 C59.2039801,39.800995 55.2238806,42.2885572 53.2338308,45.2736318 L53.2338308,39.800995 L41.7910448,39.800995 L41.7910448,47.761194 L41.7910448,80.5970149 L53.7313433,80.5970149 L53.7313433,60.199005 C53.7313433,55.2238806 54.7263682,49.7512438 61.1940299,49.7512438 C67.6616915,49.7512438 68.159204,56.2189055 68.159204,60.6965174 L68.159204,80.5970149 L80.5970149,80.5970149 L80.5970149,58.2089552 C80.5970149,56.2189055 80.5970149,54.2288557 80.0995025,52.238806 Z M19.4029851,50.7462687 L19.4029851,80.5970149 L33.8308458,80.5970149 L33.8308458,48.2587065 L33.8308458,39.800995 L19.4029851,39.800995 L19.4029851,50.7462687 Z"/>
</svg>
