<svg xmlns="http://www.w3.org/2000/svg" width="63" height="98" viewBox="0 0 63 98">
  <path fill="#9DA3B0" d="M31.2109375,0.4527375 C13.9506375,0.4527375 0,14.4206 0,31.7027375 C0,35.6715875 1.15741625,40.7125 2.5,44.2027375 L31.25,97.95275 L60,44.2027375 C61.3501125,40.7112125 62.5,35.67335 62.5,31.7027375 C62.5,14.4206 48.47145,0.4527375 31.2109375,0.4527375 Z M31.2109375,15.4527375 C40.1863875,15.4527375 47.5,22.7160375 47.5,31.7027375 C47.5,40.68945 40.1863875,47.95275 31.2109375,47.95275 C22.2355875,47.95275 15,40.68945 15,31.7027375 C15,22.7160375 22.2355875,15.4527375 31.2109375,15.4527375 Z" transform="translate(0 -.203)"/>
</svg>
