<svg xmlns="http://www.w3.org/2000/svg" width="14" height="14" viewBox="0 0 14 14">
  <path fill="#000000" d="M5.44504956,0.0685262162 C2.44245789,0.0685262162 2.52777778e-06,2.44494865 2.52777778e-06,5.36639486 C2.52777778e-06,8.28782973 2.44245789,10.664273 5.44504956,10.664273 C6.80724956,10.664273 8.05639956,10.1766189 9.01228844,9.36936757 L13.339144,13.5793 C13.4910051,13.7270757 13.7341579,13.7270757 13.8860579,13.5793 C14.0379773,13.4315054 14.0379773,13.1949243 13.8860579,13.0471486 L9.55920233,8.83721622 C10.3888773,7.90718108 10.8900773,6.69179189 10.8900773,5.36639486 C10.8900773,2.44494865 8.44764122,0.0685262162 5.44504956,0.0685262162 L5.44504956,0.0685262162 Z M5.44504956,0.825366216 C8.02723289,0.825366216 10.1122218,2.85397946 10.1122218,5.36639486 C10.1122218,7.8788027 8.02723289,9.90744054 5.44504956,9.90744054 C2.86284678,9.90744054 0.777858083,7.8788027 0.777858083,5.36639486 C0.777858083,2.85397946 2.86284678,0.825366216 5.44504956,0.825366216 Z" transform="translate(0 .12)"/>
</svg>
