<svg xmlns="http://www.w3.org/2000/svg" width="100" height="100" viewBox="0 0 100 100">
  <path fill="#9DA3B0" d="M35.625,64.3229167 L64.375,64.3229167 L64.375,35.5729167 L35.625,35.5729167 L35.625,64.3229167 L35.625,64.3229167 Z M35.625,71.1979167 L35.625,100 L64.375,100 L64.375,71.1979167 L35.625,71.1979167 L35.625,71.1979167 Z M0,71.1979167 L0,100 L28.8020833,100 L28.8020833,71.1979167 L0,71.1979167 L0,71.1979167 Z M28.8020833,35.5729167 L0,35.5729167 L0,64.3229167 L28.8020833,64.3229167 L28.8020833,35.5729167 L28.8020833,35.5729167 Z M28.8020833,0 L0,0 L0,28.75 L28.8020833,28.75 L28.8020833,0 L28.8020833,0 Z M64.375,28.75 L64.375,0 L35.625,0 L35.625,28.75 L64.375,28.75 L64.375,28.75 Z M100,64.3229167 L100,35.5729167 L71.25,35.5729167 L71.25,64.3229167 L100,64.3229167 L100,64.3229167 Z M100,100 L100,71.1979167 L71.25,71.1979167 L71.25,100 L100,100 L100,100 Z M100,28.75 L100,0 L71.25,0 L71.25,28.75 L100,28.75 Z"/>
</svg>
