<svg xmlns="http://www.w3.org/2000/svg" width="73" height="98" viewBox="0 0 73 98">
  <path fill="#9DA3B0" d="M4.54545455,0.411556818 C2.02727273,0.411556818 0,2.43882955 0,4.95701136 L0,93.5934091 C0,96.1115909 2.02727273,98.1388636 4.54545455,98.1388636 L68.1818182,98.1388636 C70.7,98.1388636 72.7272727,96.1115909 72.7272727,93.5934091 L72.7272727,4.95701136 C72.7272727,2.43882955 70.7,0.411556818 68.1818182,0.411556818 L4.54545455,0.411556818 Z M22.7272727,17.4570114 C25.2376136,17.4570114 27.2727273,19.492125 27.2727273,22.0024659 C27.2727273,24.5129205 25.2376136,26.5479205 22.7272727,26.5479205 C20.2169318,26.5479205 18.1818182,24.5129205 18.1818182,22.0024659 C18.1818182,19.492125 20.2169318,17.4570114 22.7272727,17.4570114 Z M39.7727273,26.5479205 L59.0909091,26.5479205 C60.3461364,26.5479205 61.3636364,27.5654205 61.3636364,28.8206477 C61.3636364,30.075875 60.3461364,31.093375 59.0909091,31.093375 L39.7727273,31.093375 C38.5175,31.093375 37.5,30.075875 37.5,28.8206477 C37.5,27.5654205 38.5175,26.5479205 39.7727273,26.5479205 Z M22.7272727,27.6842841 C26.9230682,27.6842841 31.8181818,29.2751932 31.8181818,35.6388523 L13.6363636,35.6388523 C13.6363636,29.2751932 18.5314773,27.6842841 22.7272727,27.6842841 Z M13.6363636,42.4570341 L59.0909091,42.4570341 C60.3461364,42.4570341 61.3636364,43.4745341 61.3636364,44.7297614 C61.3636364,45.9849886 60.3461364,47.0025 59.0909091,47.0025 L13.6363636,47.0025 C12.3811364,47.0025 11.3636364,45.9849886 11.3636364,44.7297614 C11.3636364,43.4745341 12.3811364,42.4570341 13.6363636,42.4570341 Z M13.6363636,58.3661364 L59.0909091,58.3661364 C60.3461364,58.3661364 61.3636364,59.3836364 61.3636364,60.6388636 C61.3636364,61.8940909 60.3461364,62.9115909 59.0909091,62.9115909 L13.6363636,62.9115909 C12.3811364,62.9115909 11.3636364,61.8940909 11.3636364,60.6388636 C11.3636364,59.3836364 12.3811364,58.3661364 13.6363636,58.3661364 Z M13.6363636,74.2752273 L59.0909091,74.2752273 C60.3461364,74.2752273 61.3636364,75.2927273 61.3636364,76.5479545 C61.3636364,77.8031818 60.3461364,78.8206818 59.0909091,78.8206818 L13.6363636,78.8206818 C12.3811364,78.8206818 11.3636364,77.8031818 11.3636364,76.5479545 C11.3636364,75.2927273 12.3811364,74.2752273 13.6363636,74.2752273 Z" transform="translate(0 -.275)"/>
</svg>
