<svg xmlns="http://www.w3.org/2000/svg" width="89" height="100" viewBox="0 0 89 100">
  <path fill="#9DA3B0" d="M71.5958333,34.521875 C72.8020833,34.521875 73.978125,34.3927083 75.1145833,34.1552083 C77.5145833,33.6520833 79.7197917,32.6364583 81.6385417,31.2447917 L81.6708333,31.23125 L81.6802083,31.2145833 C85.95625,28.090625 88.7510417,23.0552083 88.7510417,17.3677083 C88.7510417,7.90833333 81.0541667,0.213541667 71.5958333,0.213541667 C62.1375,0.213541667 54.4416667,7.90833333 54.4416667,17.3666667 C54.4416667,17.7416667 54.475,18.1072917 54.4989583,18.475 L26.7916667,35.3291667 C24.2052083,33.7645833 21.1864583,32.8458333 17.95,32.8458333 C8.490625,32.8458333 0.795833333,40.5416667 0.795833333,50.0010417 C0.795833333,59.459375 8.49166667,67.1552083 17.95,67.1552083 C20.8760417,67.1552083 23.6322917,66.4145833 26.0458333,65.1177083 L54.4541667,82.4 C54.453125,82.478125 54.4427083,82.5541667 54.4427083,82.6333333 C54.4427083,92.09375 62.1375,99.7885417 71.5958333,99.7885417 C74.396875,99.7885417 77.0333333,99.1010417 79.371875,97.9052083 L79.3885417,97.9083333 L79.3979167,97.8927083 C84.2895833,95.3822917 87.815625,90.5958333 88.5802083,84.9333333 L88.6020833,84.9041667 L88.5875,84.8770833 C88.684375,84.1416667 88.75,83.3958333 88.75,82.634375 C88.75,73.178125 81.0541667,65.4802083 71.596875,65.4802083 C67.9729167,65.4802083 64.6135417,66.6177083 61.8416667,68.5416667 L34.95,52.184375 C35.040625,51.4677083 35.1041667,50.7416667 35.1041667,50.0010417 C35.1041667,49.5510417 35.0708333,49.1083333 35.0364583,48.6645833 L62.5625,31.9229167 C65.1895833,33.559375 68.2791667,34.521875 71.5958333,34.521875 Z M71.5958333,13.9322917 C73.540625,13.9322917 75.1145833,15.50625 75.1145833,17.4510417 C75.1145833,19.3927083 73.540625,20.9697917 71.5958333,20.9697917 C69.6510417,20.9697917 68.078125,19.3916667 68.078125,17.4510417 C68.078125,15.50625 69.6510417,13.9322917 71.5958333,13.9322917 Z M17.7145833,53.5197917 C15.76875,53.5197917 14.1958333,51.9416667 14.1958333,50.0010417 C14.1958333,48.0552083 15.7697917,46.4822917 17.7145833,46.4822917 C19.659375,46.4822917 21.2333333,48.0552083 21.2333333,50.0010417 C21.2333333,51.9416667 19.659375,53.5197917 17.7145833,53.5197917 Z M71.5958333,79.03125 C73.540625,79.03125 75.1145833,80.6052083 75.1145833,82.55 C75.1145833,84.4916667 73.540625,86.06875 71.5958333,86.06875 C69.6510417,86.06875 68.078125,84.490625 68.078125,82.55 C68.078125,80.6052083 69.6510417,79.03125 71.5958333,79.03125 Z"/>
</svg>
