<svg xmlns="http://www.w3.org/2000/svg" width="82" height="100" viewBox="0 0 82 100">
  <g fill="#9DA3B0">
    <path d="M7.12931034 93.4586207C7.12931034 96.8862069 9.91724138 99.6637931 13.3551724 99.6637931L69.4034483 99.6637931C72.8551724 99.6637931 75.6413793 96.887931 75.6413793 93.4586207L75.6413793 29.5931034 7.12931034 29.5931034 7.12931034 93.4586207zM56.5482759 35.7465517L66.2034483 35.7465517 66.2034483 87.3931034C66.2034483 90.0586207 64.037931 92.2137931 61.3844828 92.2137931 58.7137931 92.2137931 56.55 90.0586207 56.55 87.3931034L56.55 35.7465517 56.5482759 35.7465517zM36.5586207 35.7465517L46.2206897 35.7465517 46.2206897 87.3931034C46.2206897 90.0586207 44.0586207 92.2137931 41.3896552 92.2137931 38.7206897 92.2137931 36.5586207 90.0586207 36.5586207 87.3931034L36.5586207 35.7465517zM16.4258621 35.7465517L26.0741379 35.7465517 26.0741379 87.3931034C26.0741379 90.0586207 23.9103448 92.2137931 21.25 92.2137931 18.5896552 92.2137931 16.4275862 90.0586207 16.4275862 87.3931034L16.4275862 35.7465517 16.4258621 35.7465517zM75.6275862 6.97586207L51.1775862 6.97586207 51.1775862 3.43793103C51.1775862 3.43793103 51.0672414.336206897 47.9534483.336206897L34.6.336206897C31.4896552.336206897 31.5965517 3.43793103 31.5965517 3.43793103L31.5965517 6.97586207 7.13103448 6.97586207C3.69482759 6.97586207.903448276 9.75689655.903448276 13.1844828L.903448276 23.3896552 81.8586207 23.3896552 81.8586207 13.1844828C81.8568966 9.75689655 79.0672414 6.97586207 75.6275862 6.97586207z"/>
  </g>
</svg>
