<svg xmlns="http://www.w3.org/2000/svg" width="100" height="100" viewBox="0 0 100 100">
  <g fill="#9DA3B0">
    <path d="M50,99.4897959 C22.755102,99.4897959 0.510204082,77.244898 0.510204082,50 C0.510204082,22.755102 22.755102,0.510204082 50,0.510204082 C77.244898,0.510204082 99.4897959,22.755102 99.4897959,50 C99.4897959,77.244898 77.244898,99.4897959 50,99.4897959 Z M50,3.57142857 C24.3877551,3.57142857 3.57142857,24.3877551 3.57142857,50 C3.57142857,75.6122449 24.3877551,96.4285714 50,96.4285714 C75.6122449,96.4285714 96.4285714,75.6122449 96.4285714,50 C96.4285714,24.3877551 75.6122449,3.57142857 50,3.57142857 Z"/>
    <path d="M76.5306122,64.7959184 C76.122449,64.7959184 75.7142857,64.6938776 75.4081633,64.3877551 L50,38.877551 L24.5918367,64.2857143 C23.9795918,64.8979592 23.0612245,64.8979592 22.4489796,64.2857143 C21.8367347,63.6734694 21.8367347,62.755102 22.4489796,62.1428571 L48.9795918,35.7142857 C49.5918367,35.1020408 50.5102041,35.1020408 51.122449,35.7142857 L77.6530612,62.244898 C78.2653061,62.8571429 78.2653061,63.7755102 77.6530612,64.3877551 C77.3469388,64.6938776 76.9387755,64.7959184 76.5306122,64.7959184 Z"/>
  </g>
</svg>
