<svg xmlns="http://www.w3.org/2000/svg" width="91" height="100" viewBox="0 0 91 100">
  <g fill="#9DA3B0">
    <path d="M29.31 19.9766667C19.5588889 19.9766667 12.9333333 27.58 12.9333333 36.9577778 12.9333333 46.3333333 19.5588889 53.9388889 29.31 53.9388889 39.0555556 53.9388889 45.68 46.3333333 45.68 36.9577778 45.68 27.58 39.0555556 19.9766667 29.31 19.9766667zM.627777778 85.5455556C.846666667 90.0211111 2.43444444 95.0366667 5.01888889 97.9055556 7.49555556 100.803333 52.6555556 100.59 53.5944444 97.9055556 56.18 95.0366667 57.7622222 90.0211111 57.9866667 85.5455556 57.9866667 70.3233333 45.2288889 57.98 29.4388889 57.8444444L29.4388889 57.8288889C29.3966667 57.8288889 29.3511111 57.8355556 29.3044444 57.8355556 29.2611111 57.8355556 29.2188889 57.8288889 29.1755556 57.8288889L29.1755556 57.8444444C13.3844444 57.9811111.627777778 70.3233333.627777778 85.5455556zM61.8066667 0C52.0577778 0 45.4311111 7.60333333 45.4311111 16.98 45.4311111 26.3577778 52.0577778 33.9633333 61.8066667 33.9633333 71.5522222 33.9633333 78.1777778 26.3577778 78.1777778 16.98 78.1777778 7.60333333 71.5522222 0 61.8066667 0z"/>
    <path d="M61.9355556,37.8655556 L61.9355556,37.8533333 C61.8922222,37.8533333 61.8477778,37.8588889 61.8033333,37.8588889 C61.76,37.8588889 61.7166667,37.8533333 61.6722222,37.8533333 L61.6722222,37.8655556 C57.4566667,37.9022222 53.4588889,38.8155556 49.8622222,40.4144444 C48.9311111,46.8444444 45.4166667,52.1611111 40.3533333,55.3 C51.4455556,59.1588889 59.8388889,68.5755556 61.9144444,80.0222222 C73.79,80.0122222 85.6166667,79.2888889 86.0911111,77.9277778 C88.6766667,75.0588889 90.2622222,70.0444444 90.4822222,65.5688889 C90.4833333,50.3466667 77.7266667,38.0033333 61.9355556,37.8655556 Z"/>
  </g>
</svg>
