<svg xmlns="http://www.w3.org/2000/svg" width="147" height="98" viewBox="0 0 147 98">
  <path fill="#9DA3B0" d="M44.6875,0.603633333 C42.9696481,0.765535945 41.6592266,2.2115182 41.6666667,3.93696667 L41.6666667,27.2703 C41.6668507,29.1111729 43.1591271,30.6034493 45,30.6036333 L70,30.6036333 L70,43.9369667 L20,43.9369667 C19.8958906,43.9320817 19.7916094,43.9320817 19.6875,43.9369667 C17.9696481,44.0988693 16.6592266,45.5448515 16.6666667,47.2703 L16.6666667,67.2703 L3.33333333,67.2703 C3.22922394,67.265415 3.12494273,67.265415 3.02083333,67.2703 C1.30298139,67.4322026 -0.00744003154,68.8781849 9.25185831e-14,70.6036333 L9.25185831e-14,93.9369667 C0.000184059685,95.7778396 1.49246041,97.2701159 3.33333333,97.2703 L40,97.2703 C41.8408729,97.2701159 43.3331493,95.7778396 43.3333333,93.9369667 L43.3333333,70.6036333 C43.3331493,68.7627604 41.8408729,67.2704841 40,67.2703 L23.3333333,67.2703 L23.3333333,50.6036333 L70,50.6036333 L70,67.2703 L55,67.2703 C53.1591271,67.2704841 51.6668507,68.7627604 51.6666667,70.6036333 L51.6666667,93.9369667 C51.6668507,95.7778396 53.1591271,97.2701159 55,97.2703 L91.6666667,97.2703 C93.5075396,97.2701159 94.9998159,95.7778396 95,93.9369667 L95,70.6036333 C95.00744,68.8781849 93.6970186,67.4322026 91.9791667,67.2703 C91.8750573,67.265415 91.7707761,67.265415 91.6666667,67.2703 L76.6666667,67.2703 L76.6666667,50.6036333 L123.333333,50.6036333 L123.333333,67.2703 L106.666667,67.2703 C104.825794,67.2704841 103.333517,68.7627604 103.333333,70.6036333 L103.333333,93.9369667 C103.333517,95.7778396 104.825794,97.2701159 106.666667,97.2703 L143.333333,97.2703 C145.174206,97.2701159 146.666483,95.7778396 146.666667,93.9369667 L146.666667,70.6036333 C146.674107,68.8781849 145.363685,67.4322026 143.645833,67.2703 C143.541724,67.265415 143.437443,67.265415 143.333333,67.2703 L130,67.2703 L130,47.2703 C129.999816,45.4294271 128.50754,43.9371507 126.666667,43.9369667 L76.6666667,43.9369667 L76.6666667,30.6036333 L101.666667,30.6036333 C103.50754,30.6034493 104.999816,29.1111729 105,27.2703 L105,3.93696667 C104.999816,2.09609375 103.50754,0.603817393 101.666667,0.603633333 L45,0.603633333 C44.8958906,0.598748325 44.7916094,0.598748325 44.6875,0.603633333 Z" transform="translate(0 .063)"/>
</svg>
